<mxfile host="app.diagrams.net" agent="Mozilla/5.0 (Windows NT 10.0; Win64; x64) AppleWebKit/537.36 (KHTML, like Gecko) Chrome/129.0.0.0 Safari/537.36" version="24.7.17">
  <diagram name="Page-1" id="CLhre48MC7n7z35fqWmV">
    <mxGraphModel dx="3520" dy="1872" grid="1" gridSize="1" guides="1" tooltips="1" connect="1" arrows="1" fold="1" page="1" pageScale="1" pageWidth="3840" pageHeight="2160" background="#B3B3B3" math="0" shadow="0">
      <root>
        <mxCell id="0" />
        <mxCell id="1" parent="0" />
        <mxCell id="Lg7Jd3A_N2r4RlMJJI9N-1" value="login" style="rounded=0;whiteSpace=wrap;html=1;" vertex="1" parent="1">
          <mxGeometry x="1682" y="632" width="120" height="60" as="geometry" />
        </mxCell>
        <mxCell id="Lg7Jd3A_N2r4RlMJJI9N-3" value="" style="endArrow=none;html=1;rounded=0;" edge="1" parent="1">
          <mxGeometry width="50" height="50" relative="1" as="geometry">
            <mxPoint x="1692" y="632" as="sourcePoint" />
            <mxPoint x="1632" y="572" as="targetPoint" />
          </mxGeometry>
        </mxCell>
        <mxCell id="Lg7Jd3A_N2r4RlMJJI9N-4" value="email" style="ellipse;whiteSpace=wrap;html=1;" vertex="1" parent="1">
          <mxGeometry x="1562" y="492" width="120" height="80" as="geometry" />
        </mxCell>
        <mxCell id="Lg7Jd3A_N2r4RlMJJI9N-5" value="" style="endArrow=none;html=1;rounded=0;" edge="1" parent="1">
          <mxGeometry width="50" height="50" relative="1" as="geometry">
            <mxPoint x="1692" y="632" as="sourcePoint" />
            <mxPoint x="1752" y="552" as="targetPoint" />
          </mxGeometry>
        </mxCell>
        <mxCell id="Lg7Jd3A_N2r4RlMJJI9N-6" value="password" style="ellipse;whiteSpace=wrap;html=1;" vertex="1" parent="1">
          <mxGeometry x="1712" y="472" width="120" height="80" as="geometry" />
        </mxCell>
        <mxCell id="Lg7Jd3A_N2r4RlMJJI9N-7" value="" style="endArrow=none;html=1;rounded=0;" edge="1" parent="1">
          <mxGeometry width="50" height="50" relative="1" as="geometry">
            <mxPoint x="1782" y="632" as="sourcePoint" />
            <mxPoint x="1882" y="532" as="targetPoint" />
          </mxGeometry>
        </mxCell>
        <mxCell id="Lg7Jd3A_N2r4RlMJJI9N-8" value="user_code" style="ellipse;whiteSpace=wrap;html=1;" vertex="1" parent="1">
          <mxGeometry x="1862" y="472" width="120" height="80" as="geometry" />
        </mxCell>
        <mxCell id="Lg7Jd3A_N2r4RlMJJI9N-9" value="" style="endArrow=none;html=1;rounded=0;" edge="1" parent="1">
          <mxGeometry width="50" height="50" relative="1" as="geometry">
            <mxPoint x="1792" y="632" as="sourcePoint" />
            <mxPoint x="2002" y="572" as="targetPoint" />
          </mxGeometry>
        </mxCell>
        <mxCell id="Lg7Jd3A_N2r4RlMJJI9N-10" value="id" style="ellipse;whiteSpace=wrap;html=1;" vertex="1" parent="1">
          <mxGeometry x="1992" y="522" width="120" height="80" as="geometry" />
        </mxCell>
        <mxCell id="Lg7Jd3A_N2r4RlMJJI9N-11" value="" style="endArrow=none;html=1;rounded=0;" edge="1" parent="1">
          <mxGeometry width="50" height="50" relative="1" as="geometry">
            <mxPoint x="1742" y="792" as="sourcePoint" />
            <mxPoint x="1742" y="692" as="targetPoint" />
          </mxGeometry>
        </mxCell>
        <mxCell id="Lg7Jd3A_N2r4RlMJJI9N-12" value="has" style="rhombus;whiteSpace=wrap;html=1;" vertex="1" parent="1">
          <mxGeometry x="1697" y="792" width="90" height="80" as="geometry" />
        </mxCell>
        <mxCell id="Lg7Jd3A_N2r4RlMJJI9N-13" value="" style="endArrow=none;html=1;rounded=0;" edge="1" parent="1">
          <mxGeometry width="50" height="50" relative="1" as="geometry">
            <mxPoint x="1597" y="831.5" as="sourcePoint" />
            <mxPoint x="1697" y="831.5" as="targetPoint" />
          </mxGeometry>
        </mxCell>
        <mxCell id="Lg7Jd3A_N2r4RlMJJI9N-15" value="" style="endArrow=none;html=1;rounded=0;" edge="1" parent="1">
          <mxGeometry width="50" height="50" relative="1" as="geometry">
            <mxPoint x="1502" y="802" as="sourcePoint" />
            <mxPoint x="1452" y="742" as="targetPoint" />
          </mxGeometry>
        </mxCell>
        <mxCell id="Lg7Jd3A_N2r4RlMJJI9N-16" value="email" style="ellipse;whiteSpace=wrap;html=1;" vertex="1" parent="1">
          <mxGeometry x="1372" y="672" width="120" height="80" as="geometry" />
        </mxCell>
        <mxCell id="Lg7Jd3A_N2r4RlMJJI9N-17" value="" style="endArrow=none;html=1;rounded=0;" edge="1" parent="1">
          <mxGeometry width="50" height="50" relative="1" as="geometry">
            <mxPoint x="1512" y="802" as="sourcePoint" />
            <mxPoint x="1572" y="722" as="targetPoint" />
          </mxGeometry>
        </mxCell>
        <mxCell id="Lg7Jd3A_N2r4RlMJJI9N-18" value="password" style="ellipse;whiteSpace=wrap;html=1;" vertex="1" parent="1">
          <mxGeometry x="1522" y="652" width="120" height="80" as="geometry" />
        </mxCell>
        <mxCell id="Lg7Jd3A_N2r4RlMJJI9N-20" value="" style="endArrow=none;html=1;rounded=0;exitX=0.5;exitY=0;exitDx=0;exitDy=0;" edge="1" parent="1" source="Lg7Jd3A_N2r4RlMJJI9N-71">
          <mxGeometry width="50" height="50" relative="1" as="geometry">
            <mxPoint x="1741.5" y="938" as="sourcePoint" />
            <mxPoint x="1741.5" y="872" as="targetPoint" />
          </mxGeometry>
        </mxCell>
        <mxCell id="Lg7Jd3A_N2r4RlMJJI9N-22" value="" style="endArrow=none;html=1;rounded=0;" edge="1" parent="1">
          <mxGeometry width="50" height="50" relative="1" as="geometry">
            <mxPoint x="1608" y="1060" as="sourcePoint" />
            <mxPoint x="1691" y="994" as="targetPoint" />
          </mxGeometry>
        </mxCell>
        <mxCell id="Lg7Jd3A_N2r4RlMJJI9N-23" value="name" style="ellipse;whiteSpace=wrap;html=1;" vertex="1" parent="1">
          <mxGeometry x="1509" y="1049" width="120" height="80" as="geometry" />
        </mxCell>
        <mxCell id="Lg7Jd3A_N2r4RlMJJI9N-24" value="" style="endArrow=none;html=1;rounded=0;entryX=0.5;entryY=1;entryDx=0;entryDy=0;" edge="1" parent="1" target="Lg7Jd3A_N2r4RlMJJI9N-71">
          <mxGeometry width="50" height="50" relative="1" as="geometry">
            <mxPoint x="1677" y="1084" as="sourcePoint" />
            <mxPoint x="1727" y="1018" as="targetPoint" />
          </mxGeometry>
        </mxCell>
        <mxCell id="Lg7Jd3A_N2r4RlMJJI9N-25" value="email" style="ellipse;whiteSpace=wrap;html=1;" vertex="1" parent="1">
          <mxGeometry x="1743" y="1082" width="120" height="80" as="geometry" />
        </mxCell>
        <mxCell id="Lg7Jd3A_N2r4RlMJJI9N-26" value="" style="endArrow=none;html=1;rounded=0;" edge="1" parent="1">
          <mxGeometry width="50" height="50" relative="1" as="geometry">
            <mxPoint x="1809" y="1084" as="sourcePoint" />
            <mxPoint x="1760" y="996" as="targetPoint" />
          </mxGeometry>
        </mxCell>
        <mxCell id="Lg7Jd3A_N2r4RlMJJI9N-27" value="mobile" style="ellipse;whiteSpace=wrap;html=1;" vertex="1" parent="1">
          <mxGeometry x="1622" y="1084" width="120" height="80" as="geometry" />
        </mxCell>
        <mxCell id="Lg7Jd3A_N2r4RlMJJI9N-28" value="" style="endArrow=none;html=1;rounded=0;" edge="1" parent="1">
          <mxGeometry width="50" height="50" relative="1" as="geometry">
            <mxPoint x="1894" y="1060" as="sourcePoint" />
            <mxPoint x="1801" y="994" as="targetPoint" />
          </mxGeometry>
        </mxCell>
        <mxCell id="Lg7Jd3A_N2r4RlMJJI9N-29" value="password" style="ellipse;whiteSpace=wrap;html=1;" vertex="1" parent="1">
          <mxGeometry x="1883" y="1038" width="131" height="91" as="geometry" />
        </mxCell>
        <mxCell id="Lg7Jd3A_N2r4RlMJJI9N-32" value="" style="endArrow=none;html=1;rounded=0;" edge="1" parent="1">
          <mxGeometry width="50" height="50" relative="1" as="geometry">
            <mxPoint x="1795" y="978" as="sourcePoint" />
            <mxPoint x="2044" y="1030" as="targetPoint" />
          </mxGeometry>
        </mxCell>
        <mxCell id="Lg7Jd3A_N2r4RlMJJI9N-33" value="user_id" style="ellipse;whiteSpace=wrap;html=1;" vertex="1" parent="1">
          <mxGeometry x="2034" y="992" width="120" height="93" as="geometry" />
        </mxCell>
        <mxCell id="Lg7Jd3A_N2r4RlMJJI9N-34" value="" style="endArrow=none;html=1;rounded=0;" edge="1" parent="1" source="Lg7Jd3A_N2r4RlMJJI9N-52">
          <mxGeometry width="50" height="50" relative="1" as="geometry">
            <mxPoint x="1453" y="980" as="sourcePoint" />
            <mxPoint x="1682" y="974" as="targetPoint" />
          </mxGeometry>
        </mxCell>
        <mxCell id="Lg7Jd3A_N2r4RlMJJI9N-37" value="properties" style="rounded=0;whiteSpace=wrap;html=1;" vertex="1" parent="1">
          <mxGeometry x="827" y="1213.5" width="120" height="60" as="geometry" />
        </mxCell>
        <mxCell id="Lg7Jd3A_N2r4RlMJJI9N-40" value="" style="endArrow=none;html=1;rounded=0;" edge="1" parent="1">
          <mxGeometry width="50" height="50" relative="1" as="geometry">
            <mxPoint x="747" y="1334.5" as="sourcePoint" />
            <mxPoint x="824" y="1273.5" as="targetPoint" />
          </mxGeometry>
        </mxCell>
        <mxCell id="Lg7Jd3A_N2r4RlMJJI9N-41" value="title" style="ellipse;whiteSpace=wrap;html=1;" vertex="1" parent="1">
          <mxGeometry x="642" y="1311.5" width="120" height="80" as="geometry" />
        </mxCell>
        <mxCell id="Lg7Jd3A_N2r4RlMJJI9N-42" value="" style="endArrow=none;html=1;rounded=0;" edge="1" parent="1">
          <mxGeometry width="50" height="50" relative="1" as="geometry">
            <mxPoint x="820" y="1381.5" as="sourcePoint" />
            <mxPoint x="854" y="1273.5" as="targetPoint" />
          </mxGeometry>
        </mxCell>
        <mxCell id="Lg7Jd3A_N2r4RlMJJI9N-43" value="type" style="ellipse;whiteSpace=wrap;html=1;" vertex="1" parent="1">
          <mxGeometry x="760" y="1380.5" width="120" height="80" as="geometry" />
        </mxCell>
        <mxCell id="Lg7Jd3A_N2r4RlMJJI9N-44" value="" style="endArrow=none;html=1;rounded=0;" edge="1" parent="1">
          <mxGeometry width="50" height="50" relative="1" as="geometry">
            <mxPoint x="926" y="1384.5" as="sourcePoint" />
            <mxPoint x="883" y="1275.5" as="targetPoint" />
          </mxGeometry>
        </mxCell>
        <mxCell id="Lg7Jd3A_N2r4RlMJJI9N-45" value="description" style="ellipse;whiteSpace=wrap;html=1;" vertex="1" parent="1">
          <mxGeometry x="893" y="1378.5" width="120" height="80" as="geometry" />
        </mxCell>
        <mxCell id="Lg7Jd3A_N2r4RlMJJI9N-46" value="" style="endArrow=none;html=1;rounded=0;" edge="1" parent="1">
          <mxGeometry width="50" height="50" relative="1" as="geometry">
            <mxPoint x="1073" y="1435.5" as="sourcePoint" />
            <mxPoint x="933" y="1269.5" as="targetPoint" />
          </mxGeometry>
        </mxCell>
        <mxCell id="Lg7Jd3A_N2r4RlMJJI9N-47" value="price" style="ellipse;whiteSpace=wrap;html=1;" vertex="1" parent="1">
          <mxGeometry x="1032" y="1422.5" width="120" height="80" as="geometry" />
        </mxCell>
        <mxCell id="Lg7Jd3A_N2r4RlMJJI9N-48" value="" style="endArrow=none;html=1;rounded=0;" edge="1" parent="1">
          <mxGeometry width="50" height="50" relative="1" as="geometry">
            <mxPoint x="1082" y="1344.5" as="sourcePoint" />
            <mxPoint x="948" y="1271.5" as="targetPoint" />
          </mxGeometry>
        </mxCell>
        <mxCell id="Lg7Jd3A_N2r4RlMJJI9N-49" value="district" style="ellipse;whiteSpace=wrap;html=1;" vertex="1" parent="1">
          <mxGeometry x="1062" y="1321.5" width="120" height="80" as="geometry" />
        </mxCell>
        <mxCell id="Lg7Jd3A_N2r4RlMJJI9N-50" value="" style="endArrow=none;html=1;rounded=0;" edge="1" parent="1">
          <mxGeometry width="50" height="50" relative="1" as="geometry">
            <mxPoint x="1152" y="1291.5" as="sourcePoint" />
            <mxPoint x="946" y="1252.5" as="targetPoint" />
          </mxGeometry>
        </mxCell>
        <mxCell id="Lg7Jd3A_N2r4RlMJJI9N-51" value="city" style="ellipse;whiteSpace=wrap;html=1;" vertex="1" parent="1">
          <mxGeometry x="1137" y="1260.5" width="120" height="80" as="geometry" />
        </mxCell>
        <mxCell id="Lg7Jd3A_N2r4RlMJJI9N-53" value="" style="endArrow=none;html=1;rounded=0;exitX=1;exitY=0.25;exitDx=0;exitDy=0;" edge="1" parent="1" source="Lg7Jd3A_N2r4RlMJJI9N-37">
          <mxGeometry width="50" height="50" relative="1" as="geometry">
            <mxPoint x="1452" y="1215" as="sourcePoint" />
            <mxPoint x="2013" y="1218" as="targetPoint" />
          </mxGeometry>
        </mxCell>
        <mxCell id="Lg7Jd3A_N2r4RlMJJI9N-55" value="" style="endArrow=none;html=1;rounded=0;" edge="1" parent="1">
          <mxGeometry width="50" height="50" relative="1" as="geometry">
            <mxPoint x="2043" y="1217" as="sourcePoint" />
            <mxPoint x="2212" y="1217" as="targetPoint" />
          </mxGeometry>
        </mxCell>
        <mxCell id="Lg7Jd3A_N2r4RlMJJI9N-56" value="admin" style="rounded=0;whiteSpace=wrap;html=1;" vertex="1" parent="1">
          <mxGeometry x="1474" y="802" width="120" height="60" as="geometry" />
        </mxCell>
        <mxCell id="Lg7Jd3A_N2r4RlMJJI9N-57" value="owners" style="rounded=0;whiteSpace=wrap;html=1;" vertex="1" parent="1">
          <mxGeometry x="2211" y="1187" width="120" height="60" as="geometry" />
        </mxCell>
        <mxCell id="Lg7Jd3A_N2r4RlMJJI9N-59" value="" style="endArrow=none;html=1;rounded=0;" edge="1" parent="1">
          <mxGeometry width="50" height="50" relative="1" as="geometry">
            <mxPoint x="2131" y="1320" as="sourcePoint" />
            <mxPoint x="2214" y="1244" as="targetPoint" />
          </mxGeometry>
        </mxCell>
        <mxCell id="Lg7Jd3A_N2r4RlMJJI9N-60" value="name" style="ellipse;whiteSpace=wrap;html=1;" vertex="1" parent="1">
          <mxGeometry x="2054" y="1318" width="120" height="80" as="geometry" />
        </mxCell>
        <mxCell id="Lg7Jd3A_N2r4RlMJJI9N-61" value="" style="endArrow=none;html=1;rounded=0;" edge="1" parent="1">
          <mxGeometry width="50" height="50" relative="1" as="geometry">
            <mxPoint x="2216" y="1405" as="sourcePoint" />
            <mxPoint x="2221" y="1246" as="targetPoint" />
          </mxGeometry>
        </mxCell>
        <mxCell id="Lg7Jd3A_N2r4RlMJJI9N-62" value="mobile" style="ellipse;whiteSpace=wrap;html=1;" vertex="1" parent="1">
          <mxGeometry x="2157" y="1379" width="120" height="80" as="geometry" />
        </mxCell>
        <mxCell id="Lg7Jd3A_N2r4RlMJJI9N-63" value="" style="endArrow=none;html=1;rounded=0;" edge="1" parent="1">
          <mxGeometry width="50" height="50" relative="1" as="geometry">
            <mxPoint x="2347" y="1441" as="sourcePoint" />
            <mxPoint x="2267" y="1248" as="targetPoint" />
          </mxGeometry>
        </mxCell>
        <mxCell id="Lg7Jd3A_N2r4RlMJJI9N-64" value="email" style="ellipse;whiteSpace=wrap;html=1;" vertex="1" parent="1">
          <mxGeometry x="2278" y="1414" width="120" height="80" as="geometry" />
        </mxCell>
        <mxCell id="Lg7Jd3A_N2r4RlMJJI9N-65" value="" style="endArrow=none;html=1;rounded=0;" edge="1" parent="1">
          <mxGeometry width="50" height="50" relative="1" as="geometry">
            <mxPoint x="2413" y="1345" as="sourcePoint" />
            <mxPoint x="2310" y="1249" as="targetPoint" />
          </mxGeometry>
        </mxCell>
        <mxCell id="Lg7Jd3A_N2r4RlMJJI9N-66" value="password" style="ellipse;whiteSpace=wrap;html=1;" vertex="1" parent="1">
          <mxGeometry x="2364" y="1334" width="120" height="80" as="geometry" />
        </mxCell>
        <mxCell id="Lg7Jd3A_N2r4RlMJJI9N-67" value="" style="endArrow=none;html=1;rounded=0;" edge="1" parent="1">
          <mxGeometry width="50" height="50" relative="1" as="geometry">
            <mxPoint x="2504" y="1295" as="sourcePoint" />
            <mxPoint x="2330" y="1245" as="targetPoint" />
          </mxGeometry>
        </mxCell>
        <mxCell id="Lg7Jd3A_N2r4RlMJJI9N-68" value="user_id" style="ellipse;whiteSpace=wrap;html=1;" vertex="1" parent="1">
          <mxGeometry x="2484" y="1269" width="120" height="80" as="geometry" />
        </mxCell>
        <mxCell id="Lg7Jd3A_N2r4RlMJJI9N-69" value="Added&amp;nbsp;&lt;div&gt;by&lt;/div&gt;" style="rhombus;whiteSpace=wrap;html=1;" vertex="1" parent="1">
          <mxGeometry x="1983" y="1178" width="80" height="80" as="geometry" />
        </mxCell>
        <mxCell id="Lg7Jd3A_N2r4RlMJJI9N-71" value="student" style="rounded=0;whiteSpace=wrap;html=1;" vertex="1" parent="1">
          <mxGeometry x="1681" y="945" width="120" height="60" as="geometry" />
        </mxCell>
        <mxCell id="Lg7Jd3A_N2r4RlMJJI9N-72" value="" style="endArrow=none;html=1;rounded=0;" edge="1" parent="1" target="Lg7Jd3A_N2r4RlMJJI9N-73">
          <mxGeometry width="50" height="50" relative="1" as="geometry">
            <mxPoint x="1800" y="676" as="sourcePoint" />
            <mxPoint x="2258" y="676" as="targetPoint" />
          </mxGeometry>
        </mxCell>
        <mxCell id="Lg7Jd3A_N2r4RlMJJI9N-73" value="has" style="rhombus;whiteSpace=wrap;html=1;" vertex="1" parent="1">
          <mxGeometry x="2218" y="636" width="80" height="80" as="geometry" />
        </mxCell>
        <mxCell id="Lg7Jd3A_N2r4RlMJJI9N-74" value="" style="endArrow=none;html=1;rounded=0;" edge="1" parent="1">
          <mxGeometry width="50" height="50" relative="1" as="geometry">
            <mxPoint x="2267" y="1185" as="sourcePoint" />
            <mxPoint x="2259" y="711" as="targetPoint" />
          </mxGeometry>
        </mxCell>
        <mxCell id="Lg7Jd3A_N2r4RlMJJI9N-75" value="" style="endArrow=none;html=1;rounded=0;" edge="1" parent="1">
          <mxGeometry width="50" height="50" relative="1" as="geometry">
            <mxPoint x="2333" y="1218" as="sourcePoint" />
            <mxPoint x="2756" y="1218" as="targetPoint" />
          </mxGeometry>
        </mxCell>
        <mxCell id="Lg7Jd3A_N2r4RlMJJI9N-76" value="Managed&lt;div&gt;by&lt;/div&gt;" style="rhombus;whiteSpace=wrap;html=1;" vertex="1" parent="1">
          <mxGeometry x="2741" y="1177" width="80" height="80" as="geometry" />
        </mxCell>
        <mxCell id="Lg7Jd3A_N2r4RlMJJI9N-79" value="" style="endArrow=none;html=1;rounded=0;" edge="1" parent="1">
          <mxGeometry width="50" height="50" relative="1" as="geometry">
            <mxPoint x="2779" y="1345" as="sourcePoint" />
            <mxPoint x="2779" y="1255" as="targetPoint" />
          </mxGeometry>
        </mxCell>
        <mxCell id="Lg7Jd3A_N2r4RlMJJI9N-80" value="admin" style="rounded=0;whiteSpace=wrap;html=1;" vertex="1" parent="1">
          <mxGeometry x="2718" y="1338" width="120" height="60" as="geometry" />
        </mxCell>
        <mxCell id="Lg7Jd3A_N2r4RlMJJI9N-81" value="" style="endArrow=none;html=1;rounded=0;" edge="1" parent="1">
          <mxGeometry width="50" height="50" relative="1" as="geometry">
            <mxPoint x="2673" y="1473" as="sourcePoint" />
            <mxPoint x="2756" y="1398" as="targetPoint" />
          </mxGeometry>
        </mxCell>
        <mxCell id="Lg7Jd3A_N2r4RlMJJI9N-82" value="email" style="ellipse;whiteSpace=wrap;html=1;" vertex="1" parent="1">
          <mxGeometry x="2613" y="1468" width="120" height="80" as="geometry" />
        </mxCell>
        <mxCell id="Lg7Jd3A_N2r4RlMJJI9N-83" value="" style="endArrow=none;html=1;rounded=0;" edge="1" parent="1">
          <mxGeometry width="50" height="50" relative="1" as="geometry">
            <mxPoint x="2820" y="1472" as="sourcePoint" />
            <mxPoint x="2778" y="1399" as="targetPoint" />
          </mxGeometry>
        </mxCell>
        <mxCell id="Lg7Jd3A_N2r4RlMJJI9N-84" value="password" style="ellipse;whiteSpace=wrap;html=1;" vertex="1" parent="1">
          <mxGeometry x="2779" y="1470" width="120" height="80" as="geometry" />
        </mxCell>
        <mxCell id="Lg7Jd3A_N2r4RlMJJI9N-113" value="" style="endArrow=none;html=1;rounded=0;" edge="1" parent="1">
          <mxGeometry width="50" height="50" relative="1" as="geometry">
            <mxPoint x="878" y="989" as="sourcePoint" />
            <mxPoint x="1336" y="985" as="targetPoint" />
          </mxGeometry>
        </mxCell>
        <mxCell id="Lg7Jd3A_N2r4RlMJJI9N-114" value="" style="endArrow=none;html=1;rounded=0;exitX=0.4;exitY=0.006;exitDx=0;exitDy=0;exitPerimeter=0;" edge="1" parent="1">
          <mxGeometry width="50" height="50" relative="1" as="geometry">
            <mxPoint x="881" y="1215.36" as="sourcePoint" />
            <mxPoint x="877" y="990" as="targetPoint" />
          </mxGeometry>
        </mxCell>
        <mxCell id="Lg7Jd3A_N2r4RlMJJI9N-52" value="view" style="rhombus;whiteSpace=wrap;html=1;" vertex="1" parent="1">
          <mxGeometry x="1313" y="942" width="80" height="80" as="geometry" />
        </mxCell>
      </root>
    </mxGraphModel>
  </diagram>
</mxfile>
